<?xml version="1.0" standalone="no"?>
<!DOCTYPE svg PUBLIC "-//W3C//DTD SVG 20010904//EN"
 "http://www.w3.org/TR/2001/REC-SVG-20010904/DTD/svg10.dtd">
<svg version="1.0" xmlns="http://www.w3.org/2000/svg"
 width="1773.000000pt" height="1773.000000pt" viewBox="0 0 1773.000000 1773.000000"
 preserveAspectRatio="xMidYMid meet">
<metadata>
Created by potrace 1.14, written by Peter Selinger 2001-2017
</metadata>
<g transform="translate(0.000000,1773.000000) scale(0.100000,-0.100000)"
fill="#000000" stroke="none">
<path d="M9299 15386 c-2 -2 -44 -7 -94 -10 -205 -14 -228 -17 -255 -31 -30
-15 -79 -26 -140 -30 -19 -2 -35 -4 -35 -5 0 -3 -23 -7 -80 -15 -98 -13 -391
-90 -570 -150 -150 -50 -161 -53 -281 -60 -49 -3 -109 -7 -134 -10 -25 -3 -83
-7 -130 -10 -46 -3 -109 -8 -140 -11 -30 -3 -75 -7 -100 -9 -25 -3 -65 -7 -90
-10 -25 -2 -70 -7 -100 -10 -30 -3 -71 -8 -90 -10 -19 -3 -60 -7 -90 -10 -30
-3 -71 -7 -90 -10 -19 -2 -73 -9 -120 -15 -47 -6 -98 -13 -115 -15 -16 -3 -48
-7 -70 -9 -69 -8 -128 -17 -180 -26 -27 -5 -70 -12 -95 -15 -25 -3 -70 -10
-100 -16 -30 -6 -68 -12 -85 -14 -28 -3 -64 -10 -111 -19 -12 -2 -39 -7 -60
-10 -22 -4 -46 -8 -54 -11 -16 -4 -51 -11 -110 -21 -19 -3 -116 -24 -215 -45
-99 -22 -191 -42 -205 -45 -55 -11 -342 -85 -445 -114 -60 -17 -119 -34 -130
-37 -17 -4 -344 -105 -383 -118 -7 -3 -16 -5 -20 -6 -8 -2 -138 -47 -167 -59
-11 -4 -76 -29 -145 -55 -419 -157 -842 -369 -1177 -592 -81 -54 -152 -100
-158 -102 -5 -2 -12 -7 -15 -10 -3 -4 -43 -35 -90 -71 -108 -81 -159 -121
-180 -140 -9 -8 -45 -40 -81 -70 -273 -234 -533 -523 -714 -795 -22 -33 -43
-64 -48 -70 -15 -20 -57 -86 -57 -90 0 -2 -21 -39 -46 -82 -51 -85 -140 -262
-168 -333 -10 -25 -24 -58 -31 -75 -15 -33 -47 -107 -50 -115 -1 -3 -5 -14 -9
-25 -88 -226 -118 -309 -172 -469 -56 -171 -138 -446 -148 -500 -2 -12 -11
-48 -19 -81 -9 -33 -18 -71 -21 -85 -3 -14 -7 -36 -10 -50 -6 -28 -44 -212
-51 -249 -2 -13 -7 -49 -11 -80 -3 -31 -8 -58 -9 -61 -3 -5 -11 -55 -20 -132
-3 -21 -7 -55 -10 -77 -8 -56 -20 -174 -30 -296 -3 -38 -8 -90 -10 -114 -27
-291 -26 -1602 0 -1871 3 -25 7 -74 10 -110 3 -36 8 -76 10 -90 6 -34 13 -104
20 -197 14 -200 16 -208 80 -423 24 -80 46 -161 50 -180 14 -67 58 -185 111
-298 30 -63 54 -119 54 -126 0 -7 4 -16 8 -21 5 -6 17 -32 27 -60 22 -62 98
-173 229 -335 55 -69 105 -130 111 -136 10 -11 92 -104 134 -152 22 -27 167
-185 224 -246 102 -108 353 -359 451 -450 60 -55 118 -110 130 -121 11 -11 75
-67 141 -125 66 -58 129 -113 140 -123 86 -79 293 -247 411 -334 59 -43 125
-92 148 -108 23 -17 96 -65 162 -107 307 -192 529 -293 829 -377 66 -18 188
-40 261 -47 38 -4 123 -24 189 -46 66 -22 127 -42 135 -43 8 -2 15 -4 15 -5 0
-1 7 -3 15 -5 8 -2 40 -11 70 -20 30 -9 64 -18 75 -20 157 -34 214 -52 245
-75 60 -46 212 -144 272 -175 32 -17 58 -33 58 -37 0 -5 4 -8 10 -8 5 0 70
-29 145 -65 74 -36 140 -65 148 -65 7 0 17 -4 22 -8 22 -18 285 -110 420 -147
71 -19 172 -45 198 -50 10 -2 26 -6 35 -9 9 -3 28 -7 42 -10 14 -3 39 -8 55
-11 17 -4 39 -8 50 -10 11 -2 30 -6 41 -8 12 -3 37 -8 55 -11 19 -3 45 -8 59
-10 14 -3 41 -7 60 -10 19 -3 46 -8 60 -10 37 -7 266 -35 335 -41 33 -3 80 -8
105 -10 48 -6 152 -13 315 -21 138 -7 670 -8 780 -1 140 9 237 17 269 23 l28
5 -31 -27 c-67 -56 -81 -134 -33 -179 37 -35 70 -43 247 -61 134 -14 439 -19
575 -9 136 9 215 17 300 30 14 2 43 6 65 10 23 3 52 8 65 11 14 2 43 7 65 10
22 3 56 10 75 16 19 7 38 11 43 10 4 -1 43 7 86 18 43 11 87 22 97 25 10 2 60
15 109 29 90 24 123 30 225 41 46 5 155 22 335 51 108 17 477 103 525 121 8 3
22 7 30 9 8 2 76 24 150 49 74 25 143 48 153 50 9 2 23 7 30 12 6 4 14 8 17 8
12 1 106 38 115 46 5 5 15 9 22 9 7 0 40 13 73 29 33 16 60 28 60 26 0 -6 327
162 415 214 141 82 333 213 462 313 115 90 132 104 238 198 56 50 258 251 381
380 44 47 129 121 190 165 113 82 327 247 355 274 9 9 31 27 49 41 18 14 37
30 44 35 6 6 58 50 116 100 317 271 674 626 922 916 21 24 47 55 59 69 12 14
38 45 58 70 20 25 38 47 41 50 29 29 229 295 309 410 36 52 69 100 73 105 8
10 100 149 125 190 88 142 129 212 196 330 87 153 272 528 332 670 21 50 46
109 56 132 11 23 19 48 19 55 0 8 4 18 8 24 13 13 156 413 167 464 2 8 12 40
24 70 12 30 21 60 21 67 0 6 5 24 12 40 6 15 12 33 13 38 2 6 12 42 23 80 23
80 71 291 78 344 2 20 6 43 9 51 2 8 7 42 10 75 4 33 9 74 11 90 24 193 24
742 -1 817 -2 7 -6 44 -9 82 -4 38 -8 78 -11 90 -3 11 -7 39 -10 61 -7 58 -36
227 -49 285 -9 38 -15 72 -22 110 -3 19 -10 50 -16 68 -5 18 -12 43 -14 55 -4
25 -15 73 -39 167 -9 36 -18 72 -20 80 -2 8 -4 15 -5 15 -1 0 -3 7 -5 16 -10
50 -146 466 -173 528 -9 20 -17 42 -18 49 -6 32 -110 279 -185 440 -22 46 -39
87 -39 92 0 5 -6 15 -12 22 -7 7 -26 40 -41 73 -58 119 -230 401 -319 522 -12
17 -30 41 -38 53 -8 12 -19 28 -25 34 -5 6 -23 29 -39 51 -17 22 -32 42 -35
45 -4 3 -24 28 -46 55 -144 180 -330 376 -535 564 -133 122 -170 155 -270 236
-25 20 -54 44 -65 53 -125 103 -414 306 -588 413 -144 88 -160 98 -202 119
-22 12 -60 32 -85 46 -55 31 -357 184 -364 184 -2 0 -39 16 -82 36 -110 51
-493 202 -529 208 -5 1 -59 18 -120 38 -129 42 -228 72 -270 83 -16 5 -34 9
-40 11 -67 20 -402 103 -485 120 -14 3 -33 7 -42 10 -18 5 -46 11 -93 19 -16
3 -37 8 -45 10 -8 2 -26 6 -40 9 -23 4 -98 18 -110 21 -3 1 -27 5 -55 10 -27
5 -52 10 -55 10 -3 1 -25 5 -50 9 -25 5 -54 10 -65 12 -68 13 -140 26 -163 29
-15 2 -58 9 -97 15 -38 6 -85 13 -104 16 -19 2 -46 6 -60 8 -14 3 -62 10 -106
16 -44 6 -91 13 -105 15 -40 7 -143 20 -230 30 -30 4 -77 13 -105 21 -27 9
-61 17 -75 20 -14 2 -36 9 -50 13 -27 10 -168 43 -260 61 -30 5 -66 13 -80 15
-58 12 -233 38 -340 51 -48 6 -555 15 -561 10z m841 -591 c267 -18 256 -17
385 -30 101 -10 286 -33 320 -39 11 -2 43 -7 70 -11 57 -9 85 -13 118 -19 82
-15 103 -19 112 -21 6 -1 28 -5 50 -9 107 -20 144 -40 430 -228 107 -71 197
-135 260 -185 6 -5 30 -24 55 -43 25 -19 47 -37 50 -40 3 -3 40 -34 83 -69 42
-34 77 -64 77 -66 0 -3 -33 14 -72 36 -76 41 -374 189 -382 189 -3 0 -29 11
-58 23 -29 13 -96 41 -148 61 -52 21 -104 42 -115 47 -25 10 -351 119 -374
124 -9 3 -90 25 -181 50 -136 37 -379 95 -502 120 -61 12 -85 16 -138 25 -52
10 -73 13 -130 25 -14 2 -45 7 -70 10 -25 3 -56 8 -70 10 -39 8 -100 15 -160
20 -30 3 -71 7 -90 10 -19 2 -64 7 -100 11 -36 3 -67 8 -70 10 -4 5 563 -5
650 -11z m2800 -303 c128 -43 291 -106 440 -169 253 -106 644 -313 855 -452
55 -36 107 -69 115 -73 8 -5 42 -28 75 -53 33 -25 76 -56 95 -69 42 -28 222
-170 254 -201 6 -5 27 -23 46 -39 133 -108 402 -378 541 -541 19 -22 40 -46
47 -54 27 -29 200 -249 263 -336 72 -98 229 -333 229 -342 0 -3 10 -19 22 -36
13 -18 23 -34 23 -37 0 -3 14 -27 30 -55 56 -93 75 -130 154 -290 105 -215
123 -254 166 -365 43 -109 115 -308 120 -330 2 -8 15 -53 29 -100 70 -228 108
-391 62 -263 -10 27 -24 63 -32 81 -8 17 -21 49 -30 70 -170 401 -463 851
-784 1206 -76 84 -332 338 -399 396 -35 30 -85 74 -110 97 -25 23 -49 43 -53
43 -4 0 -15 8 -25 19 -62 64 -318 239 -533 364 -144 84 -145 85 -238 198 -52
63 -106 128 -121 144 -14 17 -43 65 -64 108 -31 66 -82 149 -167 272 -73 105
-287 322 -405 410 -22 16 -44 33 -50 37 -64 51 -94 72 -208 143 -84 54 -322
184 -342 189 -5 1 -35 14 -66 29 -31 15 -61 27 -67 27 -6 0 -13 4 -17 9 -8 13
12 8 145 -37z m-6520 4 c-3 -2 -41 -16 -85 -31 -44 -15 -100 -37 -125 -47 -88
-39 -106 -46 -190 -76 -92 -32 -183 -67 -215 -82 -11 -5 -42 -19 -70 -30 -258
-111 -514 -246 -760 -403 -112 -70 -287 -192 -337 -233 -15 -12 -81 -55 -145
-95 -65 -40 -119 -77 -121 -81 -2 -4 -8 -8 -13 -8 -6 0 -22 -8 -37 -19 -15
-10 -72 -49 -127 -85 -118 -78 -196 -131 -210 -143 -5 -4 -46 -33 -90 -63 -44
-30 -84 -58 -90 -62 -35 -28 -300 -225 -313 -233 -10 -5 -19 -13 -22 -16 -3
-3 -43 -36 -90 -73 -133 -107 -202 -164 -334 -280 -149 -131 -182 -162 -389
-369 l-197 -199 21 58 c11 33 23 66 27 74 3 8 6 20 7 25 1 6 7 21 13 35 14 30
91 238 97 260 2 8 4 17 5 20 1 3 2 8 1 13 0 4 4 7 9 7 5 0 9 3 8 8 0 4 2 16 7
27 4 11 26 65 47 120 22 55 57 137 79 183 21 46 39 85 39 87 0 14 158 268 212
340 280 375 447 544 708 720 90 60 305 185 319 185 4 0 24 9 45 19 38 20 98
43 105 40 2 0 7 3 10 8 6 10 249 101 290 109 13 3 34 10 45 16 12 6 23 11 26
10 8 -2 82 18 123 33 20 8 37 13 37 10 0 -2 21 2 48 10 26 8 58 16 72 19 14 2
54 11 90 20 36 8 76 17 90 20 14 2 63 11 110 20 47 9 101 18 120 21 19 2 46 7
60 10 14 3 48 7 75 10 28 3 57 7 65 10 8 3 40 7 70 10 30 3 66 7 80 10 25 5
94 13 180 20 25 2 70 6 100 9 124 13 160 16 265 22 60 3 111 6 112 7 1 1 34 3
74 5 40 1 71 1 69 -2z m6053 -264 c414 -216 829 -507 1152 -807 l60 -55 -65
26 c-36 14 -119 44 -185 66 -66 23 -132 49 -146 59 -27 19 -237 122 -306 151
-29 12 -113 89 -295 270 -139 139 -287 280 -328 312 -41 33 -79 64 -85 69 -19
17 66 -22 198 -91z m-803 -572 c19 -9 52 -27 73 -39 20 -11 54 -30 75 -42 88
-49 223 -133 229 -143 4 -5 -9 -1 -28 11 -104 62 -210 119 -409 220 -45 22
-45 22 -10 17 19 -4 51 -14 70 -24z m-9028 -507 c-27 -45 -137 -268 -175 -353
-8 -19 -26 -60 -40 -90 -14 -30 -52 -122 -86 -205 -34 -82 -66 -159 -71 -170
-9 -21 -105 -267 -142 -365 -12 -30 -27 -69 -34 -87 -8 -17 -14 -36 -14 -42 0
-6 -4 -19 -10 -29 -17 -32 -84 -247 -94 -304 -2 -15 -7 -32 -10 -37 -4 -5 -8
-22 -10 -38 -2 -15 -9 -50 -15 -78 -6 -27 -13 -63 -15 -79 -9 -52 -19 -120
-20 -136 -1 -8 -28 -67 -60 -130 -51 -99 -120 -262 -132 -310 -2 -8 -21 -77
-43 -152 -22 -75 -42 -152 -45 -170 -3 -18 -12 -64 -20 -103 -8 -38 -17 -86
-20 -105 -3 -19 -8 -46 -10 -60 -11 -61 -20 -120 -31 -210 -3 -25 -10 -79 -15
-120 -5 -41 -12 -109 -15 -150 -3 -41 -8 -91 -10 -110 -4 -37 -14 -192 -22
-364 -7 -145 -10 -1516 -4 -1516 3 0 7 -33 7 -73 3 -148 18 -329 40 -453 15
-88 35 -187 49 -244 9 -36 18 -74 20 -85 8 -49 47 -181 61 -206 8 -16 14 -31
13 -34 -5 -22 113 -263 208 -425 27 -47 60 -119 72 -160 52 -173 152 -406 233
-543 16 -27 27 -51 26 -53 -3 -2 -124 122 -248 255 -171 184 -342 401 -422
536 -19 33 -58 98 -86 145 -28 47 -65 116 -82 154 -32 68 -120 327 -120 351 0
14 -56 190 -70 220 -10 20 -14 37 -31 130 -9 46 -12 79 -24 230 -2 28 -6 61
-9 75 -2 14 -7 52 -11 85 -3 33 -8 74 -10 90 -5 37 -15 180 -20 300 -5 115 -6
1177 0 1270 8 151 16 292 20 340 6 81 17 208 21 240 2 17 6 53 8 82 3 29 8 71
11 95 12 93 27 194 30 218 3 14 7 42 10 64 4 21 8 46 10 55 1 9 6 36 10 61 9
54 12 71 25 135 5 28 12 66 16 85 3 19 7 40 8 45 25 100 46 186 51 213 3 15
14 59 25 97 12 39 23 79 25 90 24 113 191 578 247 688 11 23 19 42 17 42 -4 0
163 336 181 365 44 71 90 152 90 160 0 6 5 10 10 10 6 0 10 4 10 10 0 8 135
215 150 230 3 3 37 48 77 100 39 52 79 105 90 116 10 12 38 46 62 75 60 73
381 393 387 386 3 -2 -8 -27 -24 -54z m2378 -27 c0 -2 -8 -10 -17 -17 -16 -13
-17 -12 -4 4 13 16 21 21 21 13z m-70 -56 c0 -5 -5 -10 -11 -10 -5 0 -7 5 -4
10 3 6 8 10 11 10 2 0 4 -4 4 -10z m8910 -596 c97 -112 273 -368 373 -544 34
-60 150 -285 148 -288 -1 -1 5 -15 13 -30 7 -15 26 -56 41 -92 15 -36 33 -78
40 -95 47 -113 149 -400 160 -452 2 -10 8 -31 14 -46 25 -63 8 -47 -23 23 -18
41 -56 123 -85 182 -28 60 -51 110 -52 113 0 2 -15 32 -34 66 -19 33 -35 66
-35 73 0 7 -4 16 -9 21 -5 6 -65 120 -133 255 -180 353 -217 420 -332 615 -39
66 -73 125 -75 130 -2 6 -25 42 -51 80 -25 39 -49 77 -54 85 -8 15 43 -37 94
-96z m982 -66 c18 -18 65 -60 103 -93 203 -176 441 -418 585 -595 25 -30 47
-57 50 -60 18 -15 187 -249 239 -330 33 -52 65 -99 69 -105 4 -5 11 -17 15
-25 4 -8 23 -42 43 -75 50 -86 225 -447 230 -475 1 -7 13 -37 29 -75 41 -96
152 -490 160 -570 2 -16 4 -30 5 -30 1 0 3 -9 4 -20 4 -29 17 -113 22 -138 7
-37 25 -215 30 -292 4 -77 4 -423 -1 -495 -6 -97 -15 -204 -19 -230 -5 -27
-18 -131 -21 -165 -1 -11 -5 -33 -8 -50 -3 -16 -9 -46 -11 -65 -6 -35 -12 -69
-21 -115 -3 -14 -7 -37 -10 -52 -3 -16 -9 -37 -12 -48 -3 -11 -8 -29 -9 -40
-2 -11 -5 -29 -8 -40 -2 -11 -5 -29 -5 -39 -1 -11 -4 -16 -7 -13 -4 4 -8 95
-9 204 -2 178 -10 328 -20 391 -2 13 -7 53 -10 90 -4 37 -8 78 -11 92 -2 14
-7 41 -10 60 -2 19 -9 58 -14 85 -5 28 -12 64 -15 80 -3 17 -7 41 -10 55 -4
14 -8 39 -11 55 -6 31 -40 168 -73 290 -21 79 -57 190 -71 220 -5 11 -21 53
-35 94 -82 234 -280 623 -434 849 -21 31 -41 71 -44 87 -3 17 -8 46 -12 65
-17 90 -181 546 -230 640 -7 14 -32 66 -56 115 -24 50 -67 132 -96 184 -29 51
-53 95 -53 97 0 2 -25 42 -55 89 -66 101 -234 425 -221 425 2 0 19 -15 38 -32z
m-11419 -50 c-5 -7 -32 -42 -59 -78 -27 -36 -52 -66 -56 -68 -5 -2 -8 -10 -8
-17 0 -7 -4 -15 -9 -17 -4 -1 -50 -66 -101 -143 -51 -77 -101 -152 -111 -167
-11 -15 -19 -30 -19 -34 0 -3 -9 -18 -19 -33 -17 -23 -64 -105 -226 -396 -15
-27 -35 -61 -44 -75 -9 -14 -21 -34 -28 -45 -6 -11 -63 -105 -125 -210 -164
-275 -273 -507 -379 -807 -13 -38 -26 -68 -30 -68 -3 0 -4 39 -3 88 7 218 15
411 19 457 2 28 7 77 9 110 15 170 34 255 57 255 5 0 9 4 9 10 0 9 100 166
137 214 10 13 25 34 33 46 8 12 28 39 43 59 62 79 82 104 92 115 6 6 35 40 65
76 151 178 399 426 615 615 38 33 85 75 104 92 38 34 50 41 34 21z m3567
-1093 c36 -3 76 -7 90 -9 14 -2 50 -7 80 -10 127 -16 309 -72 455 -141 87 -41
248 -141 310 -192 105 -87 140 -119 235 -211 l105 -103 -71 -67 c-39 -37 -128
-121 -199 -187 -71 -66 -141 -132 -157 -147 l-29 -28 -72 76 c-204 214 -403
340 -617 392 -135 33 -165 36 -350 37 -211 0 -295 -12 -468 -65 -234 -72 -478
-262 -622 -485 -103 -158 -176 -323 -205 -464 -2 -9 -8 -36 -13 -61 -14 -59
-30 -164 -37 -230 -28 -270 -21 -820 12 -960 3 -14 7 -38 9 -55 3 -24 23 -124
29 -145 1 -3 5 -18 9 -35 4 -16 9 -36 12 -43 2 -7 4 -16 5 -20 6 -30 61 -162
97 -231 67 -130 138 -227 242 -331 194 -194 409 -300 710 -348 95 -15 470 -5
500 13 4 3 22 6 41 9 53 7 273 96 289 116 3 4 12 9 20 12 39 14 196 143 298
243 l112 112 132 -126 c72 -69 175 -167 227 -218 l96 -92 -95 -93 c-88 -87
-147 -140 -213 -196 -117 -97 -373 -245 -479 -277 -5 -1 -9 -3 -10 -5 -2 -1
-11 -3 -21 -5 -10 -2 -26 -7 -35 -11 -9 -4 -21 -8 -27 -9 -5 -2 -46 -12 -90
-23 -44 -11 -105 -24 -135 -28 -30 -3 -66 -8 -80 -10 -122 -16 -413 -22 -520
-10 -96 10 -156 17 -176 21 -12 3 -39 7 -60 11 -111 17 -368 99 -454 145 -19
11 -38 19 -42 19 -15 0 -257 148 -278 170 -3 3 -23 19 -45 35 -48 36 -218 204
-262 260 -65 82 -103 135 -103 144 0 5 -4 11 -8 13 -12 5 -74 111 -125 213
-110 220 -195 503 -232 765 -3 25 -8 56 -10 70 -5 28 -12 107 -21 220 -11 159
-6 450 11 615 2 17 6 57 10 90 3 33 7 69 9 80 33 178 42 224 46 235 1 3 2 8 1
12 0 4 5 27 13 50 14 41 37 121 41 143 5 22 96 248 122 302 39 81 153 273 173
293 3 3 18 23 35 45 66 89 208 237 290 301 28 21 52 42 55 45 16 18 181 118
270 163 140 72 370 149 510 171 19 3 46 7 60 10 63 12 88 14 188 21 59 3 108
8 110 9 5 4 234 -3 302 -10z m2819 -197 c29 -84 54 -160 56 -168 2 -8 56 -168
120 -355 64 -187 118 -347 120 -355 8 -27 86 -255 95 -275 7 -16 70 -205 75
-225 1 -3 5 -12 8 -20 3 -8 27 -78 53 -155 26 -77 64 -192 86 -255 22 -63 41
-122 43 -130 2 -8 42 -125 88 -260 46 -135 110 -321 141 -415 31 -93 60 -177
65 -185 5 -9 12 -31 16 -50 4 -19 13 -48 20 -65 7 -16 54 -154 105 -305 51
-151 95 -278 99 -282 5 -6 59 136 76 202 1 3 4 12 8 20 3 8 22 62 41 120 20
58 74 218 122 355 102 299 135 397 138 410 1 6 4 15 7 20 6 9 40 108 45 130 2
6 42 123 89 260 47 138 106 311 131 385 25 74 49 144 54 155 5 11 23 63 40
115 17 52 34 102 37 110 3 8 7 20 9 25 1 6 26 78 54 160 29 83 62 182 75 220
13 39 73 216 135 395 61 179 113 330 114 335 1 6 4 15 7 20 3 6 21 56 39 112
l35 103 362 0 362 0 -25 -67 c-13 -38 -31 -84 -39 -103 -7 -19 -25 -69 -40
-110 -15 -41 -30 -84 -35 -95 -5 -11 -20 -54 -35 -95 -15 -41 -30 -84 -35 -95
-11 -28 -115 -311 -152 -415 -16 -47 -36 -99 -44 -117 -8 -17 -14 -37 -14 -45
0 -8 -4 -18 -8 -24 -5 -5 -19 -40 -32 -79 -13 -38 -27 -76 -33 -82 -5 -7 -7
-13 -4 -13 3 0 -8 -33 -24 -72 -16 -40 -30 -75 -31 -78 -1 -7 4 7 -123 -340
-64 -173 -137 -371 -162 -440 -25 -69 -74 -204 -110 -300 -35 -96 -75 -204
-88 -240 -13 -36 -27 -74 -31 -85 -4 -11 -8 -22 -9 -25 -4 -10 -17 -46 -30
-80 -8 -19 -46 -123 -85 -230 -39 -107 -75 -204 -80 -215 -4 -11 -34 -92 -65
-180 -32 -88 -64 -175 -72 -194 -8 -18 -16 -39 -18 -45 -1 -6 -5 -20 -9 -31
-5 -11 -17 -45 -28 -75 -11 -30 -24 -64 -28 -75 -4 -11 -31 -85 -60 -165 -29
-80 -56 -154 -60 -165 -5 -11 -23 -59 -40 -107 l-32 -86 -297 1 -296 2 -31 80
c-35 92 -37 98 -69 185 -13 36 -48 133 -78 215 -30 83 -76 209 -102 280 -25
72 -49 137 -52 145 -4 8 -7 17 -7 20 -1 3 -7 14 -13 25 -6 11 -11 24 -11 28 0
8 -31 95 -122 342 -26 72 -62 171 -80 220 -17 50 -35 99 -40 110 -10 25 -42
112 -70 190 -11 33 -23 67 -27 75 -3 8 -7 20 -9 25 -9 29 -66 183 -74 200 -5
11 -22 58 -39 105 -16 47 -44 123 -61 170 -18 47 -36 99 -42 115 -5 17 -14 39
-18 50 -5 11 -37 97 -71 190 -33 94 -76 211 -94 260 -19 50 -59 160 -89 245
-31 85 -60 164 -65 175 -5 11 -16 40 -24 65 -22 63 -86 241 -96 265 -5 11 -20
52 -34 90 -14 39 -50 138 -80 220 -31 83 -76 209 -102 280 -26 72 -53 145 -60
163 l-14 32 363 0 362 0 53 -152z m-7208 -1216 c-11 -55 -23 -122 -26 -149 -4
-26 -8 -59 -11 -73 -8 -44 -13 -83 -19 -145 -3 -33 -8 -77 -11 -99 -7 -61 -14
-179 -19 -331 -6 -165 -13 -291 -19 -322 -3 -12 -8 -50 -11 -85 -4 -35 -9 -76
-10 -93 -20 -176 -26 -638 -11 -785 6 -60 32 -245 51 -365 10 -67 81 -328 102
-375 8 -18 13 -35 13 -45 3 -29 146 -330 201 -421 22 -35 39 -68 39 -74 0 -5
5 -10 10 -10 6 0 10 -5 10 -11 0 -16 120 -188 205 -294 134 -169 364 -398 497
-497 20 -15 42 -33 50 -41 26 -25 238 -177 247 -177 5 0 11 -3 13 -7 2 -5 35
-29 75 -55 39 -26 132 -91 205 -145 114 -84 189 -135 398 -269 77 -49 313
-180 441 -246 143 -72 150 -78 175 -167 6 -24 5 -23 -57 11 -35 20 -86 48
-114 63 -265 146 -437 250 -695 421 -74 49 -139 91 -145 93 -5 2 -12 7 -15 11
-5 6 -115 84 -149 105 -9 6 -18 12 -21 15 -3 3 -61 48 -130 100 -69 51 -127
97 -130 100 -3 3 -59 50 -125 105 -114 94 -418 390 -498 484 -53 62 -217 275
-231 299 -6 11 -35 60 -64 109 -103 170 -207 403 -278 622 -53 162 -64 207
-93 381 -24 140 -39 262 -56 440 -20 214 -24 505 -11 730 5 74 9 152 10 172 0
21 3 38 6 38 3 0 5 17 6 38 0 34 10 125 18 168 2 11 7 42 10 69 4 28 10 66 13
85 3 19 7 44 9 55 1 11 3 20 4 20 1 0 3 11 5 25 4 24 28 147 40 200 3 14 7 34
9 45 2 11 12 49 21 85 9 36 19 73 21 83 5 21 8 33 36 134 12 45 24 81 25 79 2
-2 -5 -49 -16 -104z m12163 -71 c31 -90 58 -173 61 -185 3 -11 11 -43 19 -71
28 -93 48 -170 62 -235 8 -36 17 -74 19 -85 32 -139 32 -139 -15 -355 -17 -80
-33 -156 -36 -170 -3 -14 -7 -33 -10 -42 -3 -9 -7 -26 -9 -37 -30 -134 -179
-608 -220 -696 -7 -16 -30 -74 -51 -128 -20 -53 -38 -96 -40 -94 -2 1 8 39 22
82 14 44 27 88 29 98 2 10 7 27 10 37 3 10 7 27 9 37 2 10 13 54 24 98 11 44
23 94 26 110 3 17 10 53 16 80 10 49 14 67 25 133 3 17 8 47 11 65 3 17 7 46
9 62 13 122 16 154 20 180 25 193 25 688 -1 935 -2 19 -6 58 -9 85 -11 107
-14 130 -31 235 -3 19 -4 33 -1 30 3 -3 30 -79 61 -169z m916 -43 c8 -24 16
-47 19 -53 3 -5 6 -14 7 -20 1 -5 13 -47 28 -93 31 -98 62 -212 82 -302 8 -36
17 -74 20 -85 7 -28 31 -153 38 -195 3 -19 7 -44 10 -55 2 -11 9 -63 15 -115
7 -52 14 -108 16 -125 24 -168 23 -688 -1 -809 -2 -12 -7 -41 -10 -66 -3 -25
-9 -63 -14 -85 -5 -22 -11 -53 -14 -70 -13 -71 -70 -267 -96 -330 -92 -220
-214 -416 -340 -549 -39 -41 -71 -62 -56 -37 6 9 55 173 61 201 1 8 6 35 11
60 4 25 8 47 9 50 2 10 17 95 21 125 2 17 6 41 9 55 15 84 26 198 30 314 5
120 -12 162 -79 203 -42 26 -43 27 -34 62 19 73 83 361 94 421 3 14 7 33 10
43 3 10 8 35 10 55 2 20 9 60 14 87 6 28 13 67 15 89 3 21 7 41 9 45 2 3 7 35
11 71 3 35 8 67 10 70 2 3 6 30 9 60 3 30 8 66 11 80 2 14 7 50 10 80 2 30 7
80 10 110 3 30 8 75 10 100 10 98 19 323 19 482 1 93 4 168 7 168 3 0 12 -19
19 -42z m-13796 -138 c4 -74 8 -155 11 -180 2 -25 7 -79 10 -120 4 -41 9 -97
11 -125 11 -118 9 -146 -26 -330 -5 -27 -12 -70 -15 -95 -3 -25 -7 -61 -10
-80 -14 -103 -21 -175 -23 -217 -1 -18 -5 -33 -9 -33 -10 0 -1 771 11 980 9
149 17 257 21 275 2 11 4 31 4 44 1 13 3 22 5 20 2 -2 7 -65 10 -139z m1116
-1825 c8 -22 15 -44 16 -50 9 -47 118 -365 144 -420 5 -11 18 -42 29 -70 50
-132 171 -376 286 -580 49 -86 159 -260 167 -263 4 -2 8 -8 8 -13 0 -14 200
-287 300 -408 125 -152 184 -218 353 -390 106 -108 109 -113 62 -86 -155 88
-485 405 -647 620 -4 6 -18 24 -31 40 -37 46 -176 259 -222 340 -131 228 -335
671 -335 728 0 9 -4 18 -9 21 -5 3 -11 16 -14 28 -3 13 -21 77 -42 143 -36
119 -100 376 -111 443 -3 19 -8 44 -10 56 -4 19 -23 138 -26 155 0 3 1 11 2
16 1 6 16 -53 34 -130 18 -77 39 -158 46 -180z m11783 -447 c-5 -32 -91 -218
-100 -218 -7 0 7 38 42 114 18 39 38 86 45 104 7 17 14 32 16 32 2 0 1 -15 -3
-32z m-103 -237 c0 -5 -8 -15 -17 -22 -16 -12 -17 -12 -6 2 7 9 10 19 6 22 -3
4 -1 7 5 7 7 0 12 -4 12 -9z m-12492 -496 c5 -11 10 -23 11 -28 0 -4 11 -31
24 -60 14 -28 49 -115 80 -192 76 -190 97 -238 176 -395 70 -139 92 -181 101
-190 3 -3 11 -16 18 -29 8 -13 23 -39 33 -59 31 -54 122 -187 131 -190 4 -2 8
-8 8 -13 0 -12 62 -98 161 -220 64 -79 142 -191 224 -320 36 -57 134 -200 199
-289 69 -96 90 -136 51 -96 -10 9 -30 23 -46 32 -17 8 -38 21 -47 29 -9 7 -62
48 -117 90 -175 135 -331 303 -510 550 -77 106 -260 445 -274 507 -1 4 -8 20
-16 35 -14 26 -13 29 10 51 32 29 40 64 23 95 -7 13 -50 70 -95 126 -46 56
-84 109 -84 117 -2 17 -3 24 -12 49 -6 19 -13 53 -22 100 -2 11 -16 76 -30
145 -15 69 -29 134 -31 145 -2 11 -7 45 -10 75 l-5 55 19 -50 c10 -28 24 -60
30 -70z m13362 -117 c-12 -18 -24 -41 -27 -50 -3 -10 -9 -18 -14 -18 -5 0 -9
-5 -9 -11 0 -6 -25 -47 -55 -91 -30 -44 -55 -83 -55 -86 0 -4 -10 -19 -22 -33
-13 -14 -27 -32 -33 -41 -30 -46 -80 -116 -147 -203 -28 -37 -104 -132 -113
-141 -5 -6 -28 -33 -50 -59 -61 -73 -71 -84 -143 -165 -112 -127 -513 -520
-529 -520 -3 0 6 19 20 43 14 23 37 65 53 92 15 28 36 66 47 85 11 19 44 78
73 130 30 52 66 109 82 125 92 98 284 352 450 595 64 93 77 108 117 122 94 35
262 147 334 222 43 45 49 46 21 4z m-12433 -850 c17 -18 54 -53 83 -78 29 -25
71 -61 94 -81 68 -60 143 -119 296 -234 80 -59 162 -121 182 -137 20 -15 41
-28 47 -28 5 0 11 -3 13 -7 3 -9 17 -19 138 -100 94 -62 398 -256 445 -283 17
-10 113 -66 215 -125 102 -59 223 -128 270 -152 47 -25 99 -53 115 -63 41 -23
215 -115 355 -186 63 -32 124 -70 134 -84 50 -65 252 -254 344 -323 57 -42 99
-77 94 -77 -5 0 -35 9 -66 20 -32 11 -61 19 -64 18 -4 -1 -47 11 -97 27 -49
16 -94 30 -100 31 -46 10 -330 112 -471 168 -87 35 -91 39 -122 92 -18 31 -32
62 -32 70 0 26 -83 98 -125 109 -51 14 -120 1 -161 -30 -27 -21 -33 -22 -55
-10 -326 181 -603 371 -864 594 -94 80 -334 315 -418 409 -30 34 -157 233
-157 247 0 2 -31 58 -69 124 -38 67 -66 121 -62 121 4 0 21 -15 38 -32z
m11078 -55 c-20 -37 -47 -77 -60 -88 -72 -64 -160 -142 -174 -155 -39 -36
-151 -121 -151 -115 0 4 19 24 42 44 63 53 287 280 332 334 21 26 41 47 43 47
3 0 -12 -30 -32 -67z m-395 -367 c0 -2 -8 -10 -17 -17 -16 -13 -17 -12 -4 4
13 16 21 21 21 13z m-92 -448 c-42 -61 -124 -168 -161 -212 -106 -125 -201
-229 -277 -304 -45 -45 -67 -59 -350 -220 -97 -55 -242 -131 -395 -205 -88
-43 -176 -87 -195 -97 -19 -10 -39 -20 -45 -21 -5 -1 -39 -15 -75 -31 -53 -24
-174 -76 -295 -127 -17 -7 -109 -43 -220 -84 -16 -7 -32 -12 -35 -13 -3 0 -13
-4 -22 -7 -42 -16 -54 -20 -63 -22 -5 -2 -66 -21 -135 -43 -69 -22 -159 -50
-200 -62 -41 -12 -95 -28 -120 -35 -137 -41 -651 -160 -773 -179 -21 -3 -71
-13 -110 -21 -89 -18 -110 -21 -272 -46 -71 -11 -137 -21 -145 -24 -8 -2 -42
-7 -75 -11 -33 -3 -70 -8 -82 -9 -20 -3 -121 8 -283 30 -25 3 -63 8 -85 11
-122 16 -166 23 -255 39 -88 17 -115 22 -115 25 0 1 -14 4 -32 6 -18 3 -51 11
-75 19 l-43 13 50 3 c28 1 61 3 75 4 65 5 189 17 225 21 22 2 65 6 96 9 31 2
69 6 85 9 16 2 52 7 79 11 51 6 155 22 210 31 17 3 44 7 60 9 17 2 39 6 50 8
11 3 40 8 65 12 51 8 46 7 155 30 259 53 674 164 770 205 11 5 38 14 60 21
170 50 723 292 733 320 2 5 8 9 14 9 5 0 33 15 61 34 29 19 68 37 88 40 20 3
42 8 50 10 8 3 25 7 39 10 53 8 427 123 500 153 8 3 20 7 25 8 18 4 340 125
372 140 17 8 34 15 37 15 3 0 39 15 78 33 40 19 98 44 128 58 187 82 527 261
703 370 43 27 81 49 84 49 3 0 16 9 30 20 36 28 38 25 11 -12z m-8055 -302
c34 -15 135 -55 202 -79 161 -59 302 -109 315 -113 30 -8 265 -86 285 -94 20
-9 48 -17 82 -25 10 -2 56 -16 103 -30 185 -57 544 -150 615 -160 22 -4 56
-10 75 -15 19 -5 48 -11 64 -14 16 -3 52 -10 80 -15 28 -6 63 -13 79 -16 15
-3 38 -7 52 -10 38 -8 235 -42 335 -59 14 -3 59 -10 100 -17 41 -7 80 -13 85
-14 27 -3 132 -18 150 -21 11 -2 43 -7 70 -10 28 -4 51 -8 53 -9 3 -3 -67 -15
-173 -31 -16 -3 -37 -6 -45 -9 -8 -2 -42 -7 -75 -10 -33 -4 -71 -9 -85 -11
-14 -1 -47 -6 -75 -9 -27 -4 -76 -10 -108 -14 -42 -6 -88 -3 -165 11 -59 10
-118 20 -132 22 -65 11 -259 67 -335 98 -27 11 -59 24 -70 28 -11 4 -64 28
-118 54 -150 70 -191 75 -274 32 -29 -15 -67 -54 -75 -77 -2 -6 -109 41 -238
104 -129 63 -282 137 -340 164 -341 163 -354 171 -374 205 -29 52 -90 142
-101 150 -17 13 5 9 38 -6z m552 -1175 c132 0 278 1 325 1 47 1 108 -1 135 -5
28 -3 73 -8 100 -11 28 -3 66 -8 85 -11 40 -5 107 -12 200 -20 36 -3 76 -7 88
-10 12 -3 32 -7 45 -10 12 -3 36 -7 52 -10 17 -3 53 -10 80 -15 61 -11 130
-22 170 -25 224 -20 252 -24 322 -46 35 -12 69 -22 76 -23 6 -2 19 -6 27 -9 8
-3 49 -15 90 -27 41 -12 86 -26 100 -30 31 -10 244 -69 365 -101 22 -6 54 -14
70 -19 17 -4 54 -14 83 -20 29 -7 51 -14 49 -16 -7 -7 -339 -17 -547 -17 -280
0 -620 17 -780 38 -48 6 -138 16 -180 20 -54 5 -108 13 -205 30 -50 9 -101 18
-115 20 -14 2 -36 6 -50 9 -14 3 -50 11 -80 17 -30 6 -76 17 -102 24 -27 8
-48 12 -48 9 0 -3 -6 -2 -12 3 -7 4 -17 8 -23 9 -26 5 -172 45 -190 53 -11 4
-45 16 -75 25 -51 16 -105 36 -155 57 -11 4 -54 22 -95 39 -169 70 -179 78
-93 73 26 -2 156 -3 288 -2z m3625 -567 c36 -5 68 -9 73 -10 4 -1 24 -2 45 -3
44 -2 28 -15 -33 -26 -101 -18 -134 -24 -184 -31 -25 -3 -57 -8 -71 -10 -98
-16 -434 -23 -590 -11 -41 3 -87 6 -102 6 -45 2 -32 16 15 17 47 1 198 13 237
19 14 2 54 7 90 10 36 3 77 8 93 11 15 2 39 6 55 8 15 3 45 7 68 11 22 3 60 9
85 14 46 9 110 7 219 -5z"/>
</g>
</svg>
